<svg xmlns="http://www.w3.org/2000/svg" xmlns:xlink="http://www.w3.org/1999/xlink" fill="none" version="1.1" width="16" height="16" viewBox="0 0 16 16"><defs><clipPath id="master_svg0_568_087650"><rect x="0" y="0" width="16" height="16" rx="0"/></clipPath></defs><g clip-path="url(#master_svg0_568_087650)"><g><g><path d="M9.1,12.1L0.5,12.1L0.5,12.9L9.9,12.9L9.9,2.5Q9.9,2.127209,9.6364,1.863604Q9.37279,1.6,9,1.6L0.5,1.6L0.5,2.4L9,2.4Q9.1,2.4,9.1,2.5L9.1,12.1Z" fill-rule="evenodd" fill="#000000" fill-opacity="0.6000000238418579"/></g><g><path d="M14.6,12.1L8.5,12.1L8.5,12.9L14.8,12.9Q15.04853,12.9,15.224260000000001,12.724260000000001Q15.4,12.54853,15.4,12.3L15.4,7.08284Q15.4,6.83431,15.224260000000001,6.65858L13.84142,5.275736Q13.66569,5.1,13.417159999999999,5.1L9.5,5.1L9.5,5.9L13.33431,5.9L14.6,7.16569L14.6,12.1Z" fill-rule="evenodd" fill="#000000" fill-opacity="0.6000000238418579"/></g><g><path d="M5.5,6L0.5,6L0.5,5L5.5,5L5.5,6Z" fill-rule="evenodd" fill="#000000" fill-opacity="0.6000000238418579"/></g><g><path d="M3,8.5L0.5,8.5L0.5,7.5L3,7.5L3,8.5Z" fill-rule="evenodd" fill="#000000" fill-opacity="0.6000000238418579"/></g><g><ellipse cx="11.25" cy="12.5498046875" rx="2.25" ry="2.25" fill="#FFFFFF" fill-opacity="1"/><path d="M13.5,12.5498046875Q13.5,12.6603446875,13.48917,12.7703446875Q13.47833,12.8803446875,13.456769999999999,12.9887546875Q13.4352,13.0971646875,13.403120000000001,13.2029446875Q13.371030000000001,13.3087246875,13.32873,13.4108446875Q13.28643,13.5129646875,13.23432,13.6104446875Q13.182220000000001,13.7079346875,13.120809999999999,13.7998346875Q13.0594,13.891744687500001,12.98927,13.9771846875Q12.91915,14.062634687500001,12.84099,14.1407946875Q12.762830000000001,14.2189546875,12.67738,14.2890746875Q12.591940000000001,14.3592046875,12.50003,14.420614687499999Q12.40813,14.482024687500001,12.31064,14.5341246875Q12.21316,14.5862346875,12.11104,14.6285346875Q12.00892,14.670834687500001,11.90314,14.702924687500001Q11.79736,14.7350046875,11.68895,14.756574687499999Q11.58054,14.7781346875,11.47054,14.7889746875Q11.36054,14.7998046875,11.25,14.7998046875Q11.13946,14.7998046875,11.02946,14.7889746875Q10.91946,14.7781346875,10.81105,14.756574687499999Q10.70264,14.7350046875,10.59686,14.702924687500001Q10.49108,14.670834687500001,10.38896,14.6285346875Q10.28684,14.5862346875,10.18936,14.5341246875Q10.09187,14.482024687500001,9.999967,14.420614687499999Q9.90806,14.3592046875,9.822615,14.2890746875Q9.73717,14.2189546875,9.65901,14.1407946875Q9.580849,14.062634687500001,9.510727,13.9771846875Q9.440604,13.891744687500001,9.379193,13.7998346875Q9.317783,13.7079346875,9.265677,13.6104446875Q9.213571,13.5129646875,9.171271,13.4108446875Q9.128971,13.3087246875,9.0968842,13.2029446875Q9.0647975,13.0971646875,9.0432331,12.9887546875Q9.0216687,12.8803446875,9.0108344,12.7703446875Q9,12.6603446875,9,12.5498046875Q9,12.4392646875,9.0108344,12.3292646875Q9.0216687,12.2192646875,9.0432331,12.1108546875Q9.0647975,12.0024446875,9.0968842,11.8966646875Q9.128971,11.7908846875,9.171271,11.6887646875Q9.213571,11.5866446875,9.265677,11.4891646875Q9.317783,11.3916746875,9.379193,11.2997716875Q9.440604,11.2078646875,9.510727,11.1224196875Q9.580849,11.0369746875,9.65901,10.9588146875Q9.73717,10.8806536875,9.822615,10.8105316875Q9.90806,10.7404086875,9.999967,10.6789976875Q10.09187,10.6175876875,10.18936,10.5654816875Q10.28684,10.5133756875,10.38896,10.4710756875Q10.49108,10.4287756875,10.59686,10.3966888875Q10.70264,10.3646021875,10.81105,10.3430377875Q10.91946,10.3214733875,11.02946,10.3106390875Q11.13946,10.2998046875,11.25,10.2998046875Q11.36054,10.2998046875,11.47054,10.3106390875Q11.58054,10.3214733875,11.68895,10.3430377875Q11.79736,10.3646021875,11.90314,10.3966888875Q12.00892,10.4287756875,12.11104,10.4710756875Q12.21316,10.5133756875,12.31064,10.5654816875Q12.40813,10.6175876875,12.50003,10.6789976875Q12.591940000000001,10.7404086875,12.67738,10.8105316875Q12.762830000000001,10.8806536875,12.84099,10.9588146875Q12.91915,11.0369746875,12.98927,11.1224196875Q13.0594,11.2078646875,13.120809999999999,11.2997716875Q13.182220000000001,11.3916746875,13.23432,11.4891646875Q13.28643,11.5866446875,13.32873,11.6887646875Q13.371030000000001,11.7908846875,13.403120000000001,11.8966646875Q13.4352,12.0024446875,13.456769999999999,12.1108546875Q13.47833,12.2192646875,13.48917,12.3292646875Q13.5,12.4392646875,13.5,12.5498046875ZM12.7,12.5498046875Q12.7,12.4785746875,12.69302,12.4076846875Q12.68604,12.3367846875,12.67214,12.2669246875Q12.65824,12.1970546875,12.63756,12.1288946875Q12.61689,12.0607246875,12.58963,11.9949146875Q12.56237,11.9291046875,12.52879,11.8662746875Q12.49521,11.8034546875,12.45563,11.744224687500001Q12.41606,11.6849946875,12.37087,11.6299346875Q12.32567,11.5748746875,12.2753,11.5245046875Q12.22493,11.4741346875,12.16987,11.4289346875Q12.11481,11.3837446875,12.055579999999999,11.3441746875Q11.99635,11.3045946875,11.933530000000001,11.2710186875Q11.8707,11.2374396875,11.80489,11.2101796875Q11.73908,11.1829196875,11.67091,11.1622416875Q11.60275,11.1415626875,11.53288,11.1276656875Q11.46302,11.1137686875,11.39212,11.1067866875Q11.32123,11.0998046875,11.25,11.0998046875Q11.17877,11.0998046875,11.10788,11.1067866875Q11.03698,11.1137686875,10.96712,11.1276656875Q10.89725,11.1415626875,10.82909,11.1622416875Q10.76092,11.1829196875,10.69511,11.2101796875Q10.6293,11.2374396875,10.56647,11.2710186875Q10.50365,11.3045946875,10.444420000000001,11.3441746875Q10.38519,11.3837446875,10.33013,11.4289346875Q10.27507,11.4741346875,10.2247,11.5245046875Q10.17433,11.5748746875,10.12913,11.6299346875Q10.08394,11.6849946875,10.04437,11.744224687500001Q10.00479,11.8034546875,9.971214,11.8662746875Q9.937635,11.9291046875,9.910375,11.9949146875Q9.883115,12.0607246875,9.862437,12.1288946875Q9.841758,12.1970546875,9.827861,12.2669246875Q9.813964,12.3367846875,9.806982,12.4076846875Q9.8,12.4785746875,9.8,12.5498046875Q9.8,12.6210346875,9.806982,12.6919246875Q9.813964,12.7628246875,9.827861,12.8326846875Q9.841758,12.9025546875,9.862437,12.9707146875Q9.883115,13.0388846875,9.910375,13.1046946875Q9.937635,13.1705046875,9.971214,13.233334687500001Q10.00479,13.2961546875,10.04437,13.355384687499999Q10.08394,13.4146146875,10.12913,13.4696746875Q10.17433,13.5247346875,10.2247,13.5751046875Q10.27507,13.6254746875,10.33013,13.6706646875Q10.38519,13.7158546875,10.444420000000001,13.7554346875Q10.50365,13.7950146875,10.56647,13.8285946875Q10.6293,13.8621746875,10.69511,13.8894246875Q10.76092,13.9166946875,10.82909,13.9373646875Q10.89725,13.9580446875,10.96712,13.9719446875Q11.03698,13.9858446875,11.10788,13.9928246875Q11.17877,13.9998046875,11.25,13.9998046875Q11.32123,13.9998046875,11.39212,13.9928246875Q11.46302,13.9858446875,11.53288,13.9719446875Q11.60275,13.9580446875,11.67091,13.9373646875Q11.73908,13.9166946875,11.80489,13.8894346875Q11.8707,13.8621746875,11.933530000000001,13.8285946875Q11.99635,13.7950146875,12.055579999999999,13.7554346875Q12.11481,13.7158646875,12.16987,13.6706746875Q12.22493,13.6254746875,12.2753,13.5751046875Q12.32567,13.5247346875,12.37086,13.4696746875Q12.41605,13.4146146875,12.45563,13.355384687499999Q12.49521,13.2961546875,12.52879,13.233334687500001Q12.56237,13.1705046875,12.58962,13.1046946875Q12.61689,13.0388846875,12.63756,12.9707146875Q12.65824,12.9025546875,12.67214,12.8326846875Q12.68604,12.7628246875,12.69302,12.6919246875Q12.7,12.6210346875,12.7,12.5498046875Z" fill="#000000" fill-opacity="0.6000000238418579"/></g><g><ellipse cx="3.550048828125" cy="12.5498046875" rx="2.25" ry="2.25" fill="#FFFFFF" fill-opacity="1"/><path d="M5.800048828125,12.5498046875Q5.800048828125,12.6603446875,5.789218828125,12.7703446875Q5.778378828125,12.8803446875,5.756818828125,12.9887546875Q5.735248828125,13.0971646875,5.703168828125,13.2029446875Q5.671078828125,13.3087246875,5.628778828125,13.4108446875Q5.586478828125,13.5129646875,5.534368828125,13.6104446875Q5.482268828125,13.7079346875,5.420858828125,13.7998346875Q5.359448828125,13.891744687500001,5.289318828124999,13.9771846875Q5.219198828125,14.062634687500001,5.141038828125,14.1407946875Q5.062878828125,14.2189546875,4.977428828124999,14.2890746875Q4.891988828125,14.3592046875,4.800078828125001,14.420614687499999Q4.708178828125,14.482024687500001,4.610688828124999,14.5341246875Q4.513208828125,14.5862346875,4.411088828125,14.6285346875Q4.308968828125,14.670834687500001,4.2031888281250005,14.702924687500001Q4.097408828124999,14.7350046875,3.988998828125,14.756574687499999Q3.880588828125,14.7781346875,3.770588828125,14.7889746875Q3.660588828125,14.7998046875,3.550048828125,14.7998046875Q3.439508828125,14.7998046875,3.329508828125,14.7889746875Q3.219508828125,14.7781346875,3.111098828125,14.756574687499999Q3.0026888281249997,14.7350046875,2.896908828125,14.702924687500001Q2.791128828125,14.670834687500001,2.689008828125,14.6285346875Q2.5868888281249998,14.5862346875,2.4894088281249998,14.5341246875Q2.391918828125,14.482024687500001,2.300015828125,14.420614687499999Q2.208108828125,14.3592046875,2.122663828125,14.2890746875Q2.037218828125,14.2189546875,1.9590588281249999,14.1407946875Q1.880897828125,14.062634687500001,1.8107758281250002,13.9771846875Q1.740652828125,13.891744687500001,1.679241828125,13.7998346875Q1.617831828125,13.7079346875,1.565725828125,13.6104446875Q1.513619828125,13.5129646875,1.471319828125,13.4108446875Q1.429019828125,13.3087246875,1.396933028125,13.2029446875Q1.364846328125,13.0971646875,1.343281928125,12.9887546875Q1.321717528125,12.8803446875,1.310883228125,12.7703446875Q1.300048828125,12.6603446875,1.300048828125,12.5498046875Q1.300048828125,12.4392646875,1.310883228125,12.3292646875Q1.321717528125,12.2192646875,1.343281928125,12.1108546875Q1.364846328125,12.0024446875,1.396933028125,11.8966646875Q1.429019828125,11.7908846875,1.471319828125,11.6887646875Q1.513619828125,11.5866446875,1.565725828125,11.4891646875Q1.617831828125,11.3916746875,1.679241828125,11.2997716875Q1.740652828125,11.2078646875,1.8107758281250002,11.1224196875Q1.880897828125,11.0369746875,1.9590588281249999,10.9588146875Q2.037218828125,10.8806536875,2.122663828125,10.8105316875Q2.208108828125,10.7404086875,2.300015828125,10.6789976875Q2.391918828125,10.6175876875,2.4894088281249998,10.5654816875Q2.5868888281249998,10.5133756875,2.689008828125,10.4710756875Q2.791128828125,10.4287756875,2.896908828125,10.3966888875Q3.0026888281249997,10.3646021875,3.111098828125,10.3430377875Q3.219508828125,10.3214733875,3.329508828125,10.3106390875Q3.439508828125,10.2998046875,3.550048828125,10.2998046875Q3.660588828125,10.2998046875,3.770588828125,10.3106390875Q3.880588828125,10.3214733875,3.988998828125,10.3430377875Q4.097408828124999,10.3646021875,4.2031888281250005,10.3966888875Q4.308968828125,10.4287756875,4.411088828125,10.4710756875Q4.513208828125,10.5133756875,4.610688828124999,10.5654816875Q4.708178828125,10.6175876875,4.800078828125001,10.6789976875Q4.891988828125,10.7404086875,4.977428828124999,10.8105316875Q5.062878828125,10.8806536875,5.141038828125,10.9588146875Q5.219198828125,11.0369746875,5.289318828124999,11.1224196875Q5.359448828125,11.2078646875,5.420858828125,11.2997716875Q5.482268828125,11.3916746875,5.534368828125,11.4891646875Q5.586478828125,11.5866446875,5.628778828125,11.6887646875Q5.671078828125,11.7908846875,5.703168828125,11.8966646875Q5.735248828125,12.0024446875,5.756818828125,12.1108546875Q5.778378828125,12.2192646875,5.789218828125,12.3292646875Q5.800048828125,12.4392646875,5.800048828125,12.5498046875ZM5.000048828125,12.5498046875Q5.000048828125,12.4785746875,4.993068828125001,12.4076846875Q4.986088828125,12.3367846875,4.972188828125001,12.2669246875Q4.958288828125,12.1970546875,4.937608828125001,12.1288946875Q4.916938828125,12.0607246875,4.889678828125,11.9949146875Q4.862418828125,11.9291046875,4.828838828125,11.8662746875Q4.795258828125,11.8034546875,4.755678828125,11.744224687500001Q4.716108828125,11.6849946875,4.670918828125,11.6299346875Q4.625718828125001,11.5748746875,4.575348828125,11.5245046875Q4.5249788281250005,11.4741346875,4.4699188281249995,11.4289346875Q4.414858828125,11.3837446875,4.355628828125,11.3441746875Q4.296398828125,11.3045946875,4.233578828125,11.2710186875Q4.170748828124999,11.2374396875,4.104938828125,11.2101796875Q4.0391288281249995,11.1829196875,3.970958828125,11.1622416875Q3.902798828125,11.1415626875,3.832928828125,11.1276656875Q3.763068828125,11.1137686875,3.692168828125,11.1067866875Q3.621278828125,11.0998046875,3.550048828125,11.0998046875Q3.478818828125,11.0998046875,3.407928828125,11.1067866875Q3.337028828125,11.1137686875,3.267168828125,11.1276656875Q3.197298828125,11.1415626875,3.129138828125,11.1622416875Q3.060968828125,11.1829196875,2.9951588281249997,11.2101796875Q2.9293488281249997,11.2374396875,2.866518828125,11.2710186875Q2.803698828125,11.3045946875,2.744468828125,11.3441746875Q2.6852388281249997,11.3837446875,2.630178828125,11.4289346875Q2.575118828125,11.4741346875,2.524748828125,11.5245046875Q2.4743788281250003,11.5748746875,2.429178828125,11.6299346875Q2.383988828125,11.6849946875,2.344418828125,11.744224687500001Q2.304838828125,11.8034546875,2.271262828125,11.8662746875Q2.237683828125,11.9291046875,2.210423828125,11.9949146875Q2.183163828125,12.0607246875,2.162485828125,12.1288946875Q2.141806828125,12.1970546875,2.127909828125,12.2669246875Q2.114012828125,12.3367846875,2.107030828125,12.4076846875Q2.100048828125,12.4785746875,2.100048828125,12.5498046875Q2.100048828125,12.6210346875,2.107030828125,12.6919246875Q2.114012828125,12.7628246875,2.127909828125,12.8326846875Q2.141806828125,12.9025546875,2.162485828125,12.9707146875Q2.183163828125,13.0388846875,2.210423828125,13.1046946875Q2.237683828125,13.1705046875,2.271262828125,13.233334687500001Q2.304838828125,13.2961546875,2.344418828125,13.355384687499999Q2.383988828125,13.4146146875,2.429178828125,13.4696746875Q2.4743788281250003,13.5247346875,2.524748828125,13.5751046875Q2.575118828125,13.6254746875,2.630178828125,13.6706646875Q2.6852388281249997,13.7158546875,2.744468828125,13.7554346875Q2.803698828125,13.7950146875,2.866518828125,13.8285946875Q2.9293488281249997,13.8621746875,2.9951588281249997,13.8894246875Q3.060968828125,13.9166946875,3.129138828125,13.9373646875Q3.197298828125,13.9580446875,3.267168828125,13.9719446875Q3.337028828125,13.9858446875,3.407928828125,13.9928246875Q3.478818828125,13.9998046875,3.550048828125,13.9998046875Q3.621278828125,13.9998046875,3.692168828125,13.9928246875Q3.763068828125,13.9858446875,3.832928828125,13.9719446875Q3.902798828125,13.9580446875,3.970958828125,13.9373646875Q4.0391288281249995,13.9166946875,4.104938828125,13.8894346875Q4.170748828124999,13.8621746875,4.233578828125,13.8285946875Q4.296398828125,13.7950146875,4.355628828125,13.7554346875Q4.414858828125,13.7158646875,4.4699188281249995,13.6706746875Q4.5249788281250005,13.6254746875,4.575348828125,13.5751046875Q4.625718828125001,13.5247346875,4.670908828125,13.4696746875Q4.716098828125,13.4146146875,4.755678828125,13.355384687499999Q4.795258828125,13.2961546875,4.828838828125,13.233334687500001Q4.862418828125,13.1705046875,4.889668828125,13.1046946875Q4.916938828125,13.0388846875,4.937608828125001,12.9707146875Q4.958288828125,12.9025546875,4.972188828125001,12.8326846875Q4.986088828125,12.7628246875,4.993068828125001,12.6919246875Q5.000048828125,12.6210346875,5.000048828125,12.5498046875Z" fill="#000000" fill-opacity="0.6000000238418579"/></g></g></g></svg>