<svg class="icon" viewBox="0 0 1024 1024" xmlns="http://www.w3.org/2000/svg" width="200" height="200"><path d="M670.51 225.49c-12.445-12.445-32.81-12.445-45.255 0L512 338.745 398.745 225.49c-12.445-12.445-32.81-12.445-45.255 0s-12.445 32.81 0 45.255L434.745 352H384c-17.6 0-32 14.4-32 32s14.4 32 32 32h96v32h-96c-17.6 0-32 14.4-32 32s14.4 32 32 32h96v96c0 17.6 14.4 32 32 32s32-14.4 32-32v-96h96c17.6 0 32-14.4 32-32s-14.4-32-32-32h-96v-32h96c17.6 0 32-14.4 32-32s-14.4-32-32-32h-50.745l81.255-81.255c12.445-12.445 12.445-32.81 0-45.255z" fill="#2c2c2c"/><path d="M832 64H192c-70.4 0-128 57.6-128 128v448c0 70.4 57.6 128 128 128h64v160.005c0 .532.015 1.064.041 1.595.006.13.02.258.028.387.025.409.053.818.094 1.226.009.092.023.184.033.276.049.456.106.912.175 1.366l.002.011c.99 6.523 3.977 12.794 8.973 17.79 4.996 4.996 11.266 7.983 17.789 8.973l.012.002c.454.069.909.125 1.365.175.093.01.184.024.277.033.408.041.816.069 1.225.094.13.008.258.021.388.028.531.026 1.063.041 1.594.041h.006c.534 0 1.068-.015 1.601-.041.126-.006.25-.019.376-.027a32.01 32.01 0 0 0 1.237-.095c.089-.009.176-.022.265-.032 7.017-.757 13.827-3.802 19.176-9.151L493.31 768H832c70.4 0 128-57.6 128-128V192c0-70.4-57.6-128-128-128zm64 576c0 35.2-28.8 64-64 64H480.002c-8.213-.001-16.427 3.114-22.658 9.345L320 850.69V736c0-17.6-14.4-32-32-32h-96c-35.2 0-64-28.8-64-64V192c0-35.2 28.8-64 64-64h640c35.2 0 64 28.8 64 64v448z" fill="#2c2c2c"/></svg>