<svg xmlns="http://www.w3.org/2000/svg" xmlns:xlink="http://www.w3.org/1999/xlink" fill="none" version="1.1" width="17.91666603088379" height="17.5" viewBox="0 0 17.91666603088379 17.5"><g><path d="M0,1.66667L0,6.66667C0,7.58714,0.746191,8.33333,1.66667,8.33333L6.66667,8.33333C7.58714,8.33333,8.33333,7.58714,8.33333,6.66667L8.33333,1.66667C8.33333,0.746192,7.58714,0,6.66667,0L1.66667,0C0.746191,0,0,0.746192,0,1.66667ZM9.58333,6.66667C9.58333,7.58714,10.3295,8.33333,11.25,8.33333L16.25,8.33333C17.1705,8.33333,17.9167,7.58714,17.9167,6.66667L17.9167,1.66667C17.9167,0.746192,17.1705,0,16.25,0L11.25,0C10.3295,0,9.58333,0.746192,9.58333,1.66667L9.58333,6.66667ZM1.66667,7.08333Q1.25,7.08333,1.25,6.66667L1.25,1.66667Q1.25,1.25,1.66667,1.25L6.66667,1.25Q7.08333,1.25,7.08333,1.66667L7.08333,6.66667Q7.08333,7.08333,6.66667,7.08333L1.66667,7.08333ZM10.8333,6.66667Q10.8333,7.08333,11.25,7.08333L16.25,7.08333Q16.6667,7.08333,16.6667,6.66667L16.6667,1.66667Q16.6667,1.49408,16.5446,1.37204Q16.4226,1.25,16.25,1.25L11.25,1.25Q10.8333,1.25,10.8333,1.66667L10.8333,6.66667ZM0,10.8333L0,15.8333C0,16.7538,0.746191,17.5,1.66667,17.5L6.66667,17.5C7.58714,17.5,8.33333,16.7538,8.33333,15.8333L8.33333,10.8333C8.33333,9.91286,7.58714,9.16667,6.66667,9.16667L1.66667,9.16667C0.746191,9.16667,0,9.91286,0,10.8333ZM17.3333,9.16667L16.9167,9.16667C16.6866,9.16667,16.5,9.35321,16.5,9.58333L16.5,17.0833C16.5,17.3135,16.6866,17.5,16.9167,17.5L17.3333,17.5C17.5635,17.5,17.75,17.3135,17.75,17.0833L17.75,9.58333C17.75,9.35321,17.5635,9.16667,17.3333,9.16667ZM1.66667,16.25Q1.25,16.25,1.25,15.8333L1.25,10.8333Q1.25,10.4167,1.66667,10.4167L6.66667,10.4167Q7.08333,10.4167,7.08333,10.8333L7.08333,15.8333Q7.08333,16.25,6.66667,16.25L1.66667,16.25ZM10.25,11.6667L10.6667,11.6667C10.8968,11.6667,11.0833,11.8532,11.0833,12.0833L11.0833,17.0833C11.0833,17.3135,10.8968,17.5,10.6667,17.5L10.25,17.5C10.0199,17.5,9.83334,17.3135,9.83334,17.0833L9.83334,12.0833C9.83334,11.8532,10.0199,11.6667,10.25,11.6667ZM13.5833,12.5L14,12.5C14.2301,12.5,14.4167,12.6865,14.4167,12.9167L14.4167,17.0833C14.4167,17.3135,14.2301,17.5,14,17.5L13.5833,17.5C13.3532,17.5,13.1667,17.3135,13.1667,17.0833L13.1667,12.9167C13.1667,12.6865,13.3532,12.5,13.5833,12.5Z" fill-rule="evenodd" fill="#000000" fill-opacity="0.8700000047683716"/></g></svg>