<svg xmlns="http://www.w3.org/2000/svg" xmlns:xlink="http://www.w3.org/1999/xlink" fill="none" version="1.1" width="16" height="16" viewBox="0 0 16 16"><g><g><path d="M1.9999966865348815,3.797718060569763C1.1333336865348815,5.0643880605697635,0.6666666865348816,6.464388060569763,0.6666666865348816,7.997718060569763C0.6666666865348816,12.064388060569764,3.9333366865348816,15.331088060569764,7.999996686534882,15.331088060569764C9.617256686534882,15.331088060569764,11.107966686534882,14.814388060569764,12.317066686534881,13.936288060569764C14.148266686534882,12.606288060569764,15.333366686534882,10.447138060569763,15.333366686534882,7.997718060569763C15.333366686534882,3.931058060569763,12.066666686534882,0.6643880605697632,7.999996686534882,0.6643880605697632C6.7999966865348815,0.6643880605697632,5.599996686534881,0.9977210605697632,4.533336686534882,1.5977210605697632Q3.599996686534882,0.7977210605697632,2.2666666865348817,0.6643880605697632C2.1333366865348813,0.6643880605697632,1.9333366865348816,0.7310546605697632,1.8666666865348815,0.8643880605697631C1.7333366865348816,0.9977210605697632,1.6666666865348816,1.1310550605697631,1.7333366865348816,1.331055060569763C2.0308066865348815,2.6399280605697633,2.0097166865348814,3.4178680605697633,2.0017366865348816,3.7122580605697633C2.0007766865348815,3.747748060569763,1.9999966865348815,3.776208060569763,1.9999966865348815,3.797718060569763ZM2.845656686534882,1.7925180605697633Q3.0259466865348816,2.832768060569763,3.001366686534882,3.739358060569763Q2.9999966865348817,3.7897580605697634,2.9999966865348817,3.797718060569763L2.9999966865348817,4.1070880605697635L2.8253066865348817,4.362408060569763Q1.6666666865348816,6.055798060569763,1.6666666865348816,7.997718060569763Q1.6666666865348816,9.294258060569764,2.1622366865348814,10.471078060569763Q2.6409166865348817,11.607788060569764,3.5154366865348816,12.482288060569763Q4.389966686534882,13.356788060569762,5.526646686534882,13.835488060569762Q6.7034566865348815,14.331088060569764,7.999996686534882,14.331088060569764Q10.071816686534882,14.331088060569764,11.729366686534881,13.127188060569763Q12.937666686534882,12.249688060569763,13.624266686534881,10.926288060569764Q14.333366686534882,9.559568060569763,14.333366686534882,7.997718060569763Q14.333366686534882,6.701178060569763,13.83776668653488,5.524368060569763Q13.35906668653488,4.387688060569763,12.484566686534881,3.513158060569763Q11.610066686534882,2.6386380605697632,10.473356686534881,2.159958060569763Q9.296536686534882,1.6643880605697632,7.999996686534882,1.6643880605697632Q6.454546686534882,1.6643880605697632,5.023596686534882,2.469298060569763L4.413776686534882,2.8123180605697633L3.8825466865348814,2.3569780605697632Q3.4324866865348818,1.9712180605697631,2.845656686534882,1.7925180605697633ZM8.763226686534882,6.246888060569763C8.763226686534882,5.897748060569763,8.480186686534882,5.614708060569763,8.131046686534882,5.614708060569763C7.781896686534882,5.614708060569763,7.498856686534881,5.897748060569763,7.498856686534881,6.246888060569763L7.498856686534881,7.087278060569763C7.498856686534881,7.436428060569763,7.781896686534882,7.719468060569763,8.131046686534882,7.719468060569763C8.480186686534882,7.719468060569763,8.763226686534882,7.436428060569763,8.763226686534882,7.087278060569763L8.763226686534882,6.246888060569763ZM11.457466686534882,6.246888060569763C11.457466686534882,5.897748060569763,11.174466686534881,5.614708060569763,10.825266686534881,5.614708060569763C10.476156686534882,5.614708060569763,10.193116686534882,5.897748060569763,10.193116686534882,6.246888060569763L10.193116686534882,7.087278060569763C10.193116686534882,7.436428060569763,10.476156686534882,7.719468060569763,10.825266686534881,7.719468060569763C11.174466686534881,7.719468060569763,11.457466686534882,7.436428060569763,11.457466686534882,7.087278060569763L11.457466686534882,6.246888060569763Z" fill-rule="evenodd" fill="#000000" fill-opacity="0.8700000047683716"/></g></g></svg>