<svg xmlns="http://www.w3.org/2000/svg" xmlns:xlink="http://www.w3.org/1999/xlink" fill="none" version="1.1" width="24" height="24" viewBox="0 0 24 24"><g><g><g><path d="M1,12C1,9.7,1.7,7.6,3,5.7C3,5.66773,3.00116,5.62503,3.0026,5.5718C3.01457,5.13023,3.04621,3.96332,2.6,2C2.5,1.7,2.6,1.5,2.8,1.3C2.9,1.1,3.2,1,3.4,1Q5.4,1.2,6.8,2.4C8.4,1.5,10.2,1,12,1C18.1,1,23,5.9,23,12C23,15.6741,21.2224,18.9129,18.4756,20.9079C16.662,22.225,14.4259,23,12,23C5.9,23,1,18.1,1,12ZM5.00187,5.626Q5.02907,4.62269,4.89557,3.51796Q5.23991,3.69694,5.49842,3.91851L6.56088,4.8292L7.78052,4.14315Q9.81279,3,12,3Q13.8438,3,15.516,3.70417Q17.1307,4.38417,18.3733,5.62671Q19.6158,6.86926,20.2958,8.484020000000001Q21,10.15617,21,12Q21,14.2208,19.9925,16.1625Q19.017,18.0428,17.3003,19.2896Q14.9453,21,12,21Q10.15617,21,8.484020000000001,20.2958Q6.86926,19.6158,5.62671,18.3733Q4.38417,17.1307,3.70417,15.516Q3,13.8438,3,12Q3,9.2418,4.65061,6.82937L5,6.31873L5,5.7Q5,5.69484,5.00187,5.626Z" fill-rule="evenodd" fill="#006DFF" fill-opacity="1"/></g><g><path d="M12.23578,9.20144C12.23578,8.537901,11.73528,8,11.11789,8C10.500496,8,10,8.537901,10,9.20144L10,10.79856C10,11.4621,10.500496,12,11.11789,12C11.73528,12,12.23578,11.4621,12.23578,10.79856L12.23578,9.20144ZM17,9.20144C17,8.537901,16.4995,8,15.88211,8C15.26472,8,14.76422,8.537901,14.76422,9.20144L14.76422,10.79856C14.76422,11.4621,15.26472,12,15.88211,12C16.4995,12,17,11.4621,17,10.79856L17,9.20144Z" fill-rule="evenodd" fill="#006DFF" fill-opacity="1"/></g></g></g></svg>