<svg xmlns="http://www.w3.org/2000/svg" xmlns:xlink="http://www.w3.org/1999/xlink" fill="none" version="1.1" width="16" height="16" viewBox="0 0 16 16"><defs><clipPath id="master_svg0_568_087579"><rect x="0" y="0" width="16" height="16" rx="0"/></clipPath></defs><g clip-path="url(#master_svg0_568_087579)"><g><path d="M14.200048828125,8.70134001192093L14.200048828125,2.806690011920929Q14.200048828125,1.868680011920929,13.349148828125,1.555085011920929Q10.443478828125,0.40000001192092893,7.550048828125,0.40000001192092893Q4.656628828125,0.40000001192092893,1.750995828125,1.555083011920929Q0.900048828125,1.868680011920929,0.900048828125,2.806690011920929L0.900048828125,8.70134001192093Q0.900048828125,10.893800011920929,3.406268828125,13.10850001192093Q5.013138828124999,14.52850001192093,6.967498828125,15.48810001192093Q7.236588828125,15.62310001192093,7.550048828125,15.62310001192093Q7.863498828125,15.62310001192093,8.135658828124999,15.48650001192093Q10.086948828125,14.52850001192093,11.693848828125,13.10850001192093Q14.200048828125,10.893800011920929,14.200048828125,8.70134001192093ZM13.069148828125,2.304530011920929Q13.400048828125,2.4252400119209288,13.400048828125,2.806690011920929L13.400048828125,8.70134001192093Q13.400048828125,10.533170011920928,11.164078828125,12.509000011920929Q9.637808828125,13.85780001192093,7.776938828125,14.77150001192093Q7.674088828125,14.823100011920928,7.550048828125,14.823100011920928Q7.426008828125,14.823100011920928,7.320098828125,14.77000001192093Q5.462288828125,13.85780001192093,3.936018828125,12.509000011920929Q1.700048828125,10.533170011920928,1.700048828125,8.70134001192093L1.700048828125,2.806690011920929Q1.700048828125,2.4252400119209288,2.030899828125,2.304530011920929L2.036316828125,2.302560011920929L2.0416758281250003,2.300420011920929Q4.807408828125,1.2000000119209289,7.550048828125,1.2000000119209289Q10.292688828125,1.2000000119209289,13.058448828125,2.300420011920929L13.063748828125,2.302560011920929L13.069148828125,2.304530011920929Z" fill-rule="evenodd" fill="#000000" fill-opacity="0.6000000238418579"/></g><g><path d="M11.149021966400147,4.853723148498535L11.007771966400146,4.712578448498535C10.890601966400148,4.595502248498535,10.700721966400145,4.595533848498535,10.583591966400146,4.712648948498535L8.592751966400147,6.703288148498535L6.897191966400147,8.398678148498535L5.024216966400147,6.525948148498535C4.907049966400146,6.408798148498535,4.717095966400146,6.408808148498535,4.599946966400147,6.525978148498535L4.4588360664001465,6.667118148498535C4.3416922664001465,6.784288148498535,4.341706366400146,6.974228148498535,4.458867566400147,7.091378148498535L6.645831966400147,9.278088148498536C6.716681966400147,9.348928148498535,6.8100919664001465,9.383468148498535,6.902931966400146,9.381688148498535C6.969831966400147,9.399808148498536,7.0443019664001465,9.382608148498536,7.096821966400146,9.330088148498536L11.149091966400146,5.2780751484985355C11.266291966400146,5.160887148498535,11.266251966400146,4.970870148498535,11.149021966400147,4.853723148498535Z" fill-rule="evenodd" fill="#000000" fill-opacity="0.6000000238418579"/></g></g></svg>