<svg xmlns="http://www.w3.org/2000/svg" xmlns:xlink="http://www.w3.org/1999/xlink" fill="none" version="1.1" width="18.333332061767578" height="4.166666507720947" viewBox="0 0 18.333332061767578 4.166666507720947"><g><path d="M7.08333,2.08333C7.08333,0.93274,8.01607,0,9.16667,0C10.3173,0,11.25,0.93274,11.25,2.08333C11.25,3.23393,10.3173,4.16667,9.16667,4.16667C8.01607,4.16667,7.08333,3.23393,7.08333,2.08333ZM0,2.29167C0,1.48625,0.652918,0.833333,1.45833,0.833333C2.26375,0.833333,2.91667,1.48625,2.91667,2.29167C2.91667,3.09708,2.26375,3.75,1.45833,3.75C0.652918,3.75,0,3.09708,0,2.29167ZM15.4167,2.29167C15.4167,1.48625,16.0696,0.833333,16.875,0.833333C17.6804,0.833333,18.3333,1.48625,18.3333,2.29167C18.3333,3.09708,17.6804,3.75,16.875,3.75C16.0696,3.75,15.4167,3.09708,15.4167,2.29167Z" fill="#000000" fill-opacity="0.8700000047683716"/></g></svg>