<svg xmlns="http://www.w3.org/2000/svg" xmlns:xlink="http://www.w3.org/1999/xlink" fill="none" version="1.1" width="22" height="22" viewBox="0 0 22 22"><g><path d="M2,4.7C0.7,6.6,0,8.7,0,11C0,17.1,4.9,22,11,22C13.4259,22,15.662,21.225,17.4756,19.9079C20.2224,17.9129,22,14.6741,22,11C22,4.9,17.1,0,11,0C9.2,0,7.4,0.5,5.8,1.4Q4.4,0.2,2.4,0C2.2,0,1.9,0.0999999,1.8,0.3C1.6,0.5,1.5,0.7,1.6,1C2.04621,2.96332,2.01457,4.13022,2.0026,4.5718C2.00116,4.62503,2,4.66773,2,4.7ZM3.26849,1.6922Q3.53892,3.25256,3.50205,4.61245Q3.5,4.68806,3.5,4.7L3.5,5.16405L3.23796,5.54703Q1.5,8.08712,1.5,11Q1.5,12.9448,2.24336,14.71Q2.96137,16.4151,4.27316,17.7268Q5.58495,19.0386,7.28997,19.7566Q9.05519,20.5,11,20.5Q14.1077,20.5,16.5941,18.6942Q18.4064,17.3779,19.4364,15.3928Q20.5,13.3428,20.5,11Q20.5,9.05519,19.7566,7.28997Q19.0386,5.58496,17.7268,4.27316Q16.4151,2.96137,14.71,2.24336Q12.9448,1.5,11,1.5Q8.68182,1.5,6.53539,2.70736L5.62066,3.2219L4.82381,2.53888Q4.14873,1.96024,3.26849,1.6922ZM12.1448,8.37375C12.1448,7.85003,11.7203,7.42548,11.1966,7.42548C10.6728,7.42548,10.2483,7.85003,10.2483,8.37375L10.2483,9.63434C10.2483,10.1581,10.6728,10.5826,11.1966,10.5826C11.7203,10.5826,12.1448,10.1581,12.1448,9.63434L12.1448,8.37375ZM16.1862,8.37375C16.1862,7.85003,15.7617,7.42548,15.2379,7.42548C14.7142,7.42548,14.2897,7.85003,14.2897,8.37375L14.2897,9.63434C14.2897,10.1581,14.7142,10.5826,15.2379,10.5826C15.7617,10.5826,16.1862,10.1581,16.1862,9.63434L16.1862,8.37375Z" fill-rule="evenodd" fill="#000000" fill-opacity="0.8700000047683716"/></g></svg>