<svg xmlns="http://www.w3.org/2000/svg" xmlns:xlink="http://www.w3.org/1999/xlink" fill="none" version="1.1" width="15.209603309631348" height="8.16043472290039" viewBox="0 0 15.209603309631348 8.16043472290039"><path d="M22.561573009631346,8.259414270900391L22.563620109631348,8.257411978900391C22.706517209631347,8.11764445890039,22.946569009631347,8.131042019900391,23.103077409631346,8.28412186290039L30.295825309631347,15.31933022290039C30.46033430963135,15.48023752290039,30.46033430963135,15.74111982290039,30.295825309631347,15.90202622290039L29.997952309631348,16.193374622900393C29.833441309631347,16.35428042290039,29.566718309631348,16.35428042290039,29.402208309631348,16.19337372290039L22.817888709631347,9.75326662290039L16.226601109631346,16.20018962290039C16.06209194963135,16.36109642290039,15.795367539631348,16.36109642290039,15.630857139631347,16.20018962290039L15.332985709631348,15.90884162290039C15.168475311631347,15.74793532290039,15.168476104631347,15.487052922900391,15.332985709631348,15.32614612290039L22.525732509631347,8.290937482900391C22.537251009631348,8.27967137290039,22.549221509631348,8.26916184290039,22.561573009631346,8.259414270900391Z" fill-rule="evenodd" fill="#FFFFFF" fill-opacity="1" transform="matrix(-1,0,0,-1,30.419206619262695,16.32086944580078)"/></svg>