<svg xmlns="http://www.w3.org/2000/svg" xmlns:xlink="http://www.w3.org/1999/xlink" fill="none" version="1.1" width="15" height="14.397705078125" viewBox="0 0 15 14.397705078125"><g><path d="M13.3836,0.638517Q14.9922,3.39146,14.9971,4.70704Q15.0008,4.76887,14.9998,4.83416Q14.9952,5.14205,14.9637,5.41346Q14.9442,5.84542,14.7836,6.21774Q14.725,6.34389,14.6629,6.456Q14.345,7.02978,13.9353,7.23672L13.9328,7.23179Q13.763,7.34651,13.5782,7.42596L13.5782,13.0644C13.5782,13.8008,12.9813,14.3977,12.2449,14.3977L2.66667,14.3977C1.93029,14.3977,1.33333,13.8008,1.33333,13.0644L1.33333,7.32122Q1.11264,7.22663,0.913652,7.07964Q0.775637,6.97895,0.656449,6.85883Q0.650829,6.85328,0.645194,6.84765Q0.547744,6.7502,0.465034,6.64664Q0.0454816,6.12134,0.00521962,5.43894Q-0.0053277,5.28437,0.00543817,5.12118Q0.57589,2.38625,1.87022,0.51217C2.1009,0.178157,2.4867,0,2.89263,0L12.2548,0C12.7184,0,13.1498,0.238277,13.3836,0.638517ZM2.33333,7.4884L2.33333,13.0644Q2.33333,13.3977,2.66667,13.3977L12.2449,13.3977Q12.5782,13.3977,12.5782,13.0644L12.5782,7.60321Q12.2063,7.59025,11.8778,7.47218Q11.4131,7.30509,11.0355,6.92749Q10.9685,6.8605,10.9081,6.79074C10.8548,6.72921,10.7567,6.72784,10.7035,6.7894Q10.6521,6.84883,10.596,6.90626Q10.5856,6.91691,10.575,6.92749Q10.1974,7.30509,9.73259,7.47218Q9.36365,7.60481,8.93977,7.60481Q8.28661,7.60481,7.7639,7.28988Q7.61586,7.20069,7.47829,7.08624Q7.38924,7.01216,7.30458,6.92749Q7.23578,6.8587,7.17386,6.78687C7.17065,6.78315,7.16514,6.78311,7.16192,6.78684Q7.1048,6.8531,7.04172,6.91689Q7.03644,6.92223,7.03118,6.92749Q6.81568,7.14299,6.57177,7.28993Q6.04909,7.60481,5.39598,7.60481Q4.55784,7.60481,3.9345,7.08624Q3.84733,7.01372,3.76436,6.93106C3.76185,6.92856,3.75934,6.92645,3.75648,6.92437C3.73017,6.90527,3.69362,6.90813,3.66956,6.93001Q3.10018,7.44757,2.33333,7.4884ZM13.9648,5.36818Q13.9538,5.61041,13.8703,5.81026Q13.7304,6.10827,13.6049,6.2465L13.373,6.40316Q13.0745,6.60481,12.6707,6.60481Q12.4211,6.60481,12.2161,6.53114Q11.9619,6.43975,11.7426,6.22038Q11.701,6.17882,11.6642,6.13627Q11.3286,5.74856,10.8147,5.74395Q10.2894,5.73924,9.94696,6.13547Q9.91572,6.17161,9.88106,6.20704Q9.8745,6.21375,9.86787,6.22038Q9.6485,6.43975,9.39428,6.53114Q9.18936,6.60481,8.93977,6.60481Q8.56458,6.60481,8.27996,6.43333Q8.197,6.38335,8.11784,6.31748Q8.06397,6.27268,8.01169,6.22039Q7.96904,6.17774,7.93125,6.1339Q7.63114,5.78581,7.17168,5.78407Q6.70759,5.78231,6.40448,6.13394Q6.36972,6.17426,6.33266,6.21174L6.32407,6.22039Q6.19497,6.34948,6.05574,6.43336Q5.77114,6.60481,5.39598,6.60481Q4.91942,6.60481,4.57404,6.31748Q4.52134,6.27364,4.47015,6.22264Q4.41131,6.16402,4.34395,6.11512Q4.03043,5.88752,3.64344,5.91419Q3.27226,5.93976,2.99692,6.19003Q2.66626,6.49061,2.20645,6.49189L2.20055,6.4919Q1.80103,6.4919,1.50301,6.27177Q1.42937,6.21804,1.36135,6.14953L1.3523,6.14054Q1.2943,6.08254,1.2464,6.02257Q1.02504,5.74542,1.0029,5.37086Q0.998884,5.31201,1.00043,5.24927Q1.53129,2.76258,2.69305,1.08046Q2.74862,1,2.89263,1L12.2548,1Q12.4367,1,12.5202,1.14301Q13.9932,3.66392,13.9971,4.71076L13.9972,4.73872L13.9989,4.76663Q14.0003,4.79131,13.9999,4.81934Q13.9961,5.07684,13.9704,5.2982L13.9664,5.33309L13.9648,5.36818Z" fill-rule="evenodd" fill="#000000" fill-opacity="0.8700000047683716"/></g></svg>