<svg xmlns="http://www.w3.org/2000/svg" xmlns:xlink="http://www.w3.org/1999/xlink" fill="none" version="1.1" width="24" height="24" viewBox="0 0 24 24"><defs><clipPath id="master_svg0_345_31645"><rect x="0" y="0" width="24" height="24" rx="0"/></clipPath></defs><g clip-path="url(#master_svg0_345_31645)"><g><g><path d="M18.93686375732422,2.590181679550171L21.27616375732422,4.979370679550171C22.06156375732422,5.781480679550171,22.033263757324217,7.072790679550171,21.213263757324217,7.839500679550171L8.147943757324219,19.99994067955017L19.19996375732422,19.99994067955017C19.64176375732422,19.99994067955017,19.99996375732422,20.35814067955017,19.99996375732422,20.799940679550172L19.99996375732422,21.19984067955017C19.99996375732422,21.64174067955017,19.64176375732422,21.99994067955017,19.19996375732422,21.99994067955017L3.999933757324219,21.99994067955017L4.000653757324219,21.99924067955017L2.937733757324219,21.99894067955017C1.8333337573242188,21.99874067955017,0.9381732940642188,21.103340679550172,0.9381847381242188,19.99894067955017L0.9382133484242188,17.313540679550172C0.9382190704242187,16.75414067955017,1.1724527573242187,16.220440679550173,1.5840817573242187,15.84174067955017L16.153663757324217,2.517443679550171C16.94876375732422,1.785956679550171,18.181063757324218,1.8182136795501709,18.93686375732422,2.590181679550171ZM17.50776375732422,3.9893506795501708L2.9382137573242186,17.313540679550172L2.938183757324219,19.99894067955017L5.210883757324218,19.999440679550172L19.847263757324217,6.3785506795501705L17.50776375732422,3.9893506795501708Z" fill-rule="evenodd" fill="#111111" fill-opacity="1"/></g></g></g></svg>