<svg xmlns="http://www.w3.org/2000/svg" xmlns:xlink="http://www.w3.org/1999/xlink" fill="none" version="1.1" width="24" height="24" viewBox="0 0 24 24"><defs><clipPath id="master_svg0_345_31650"><rect x="0" y="0" width="24" height="24" rx="0"/></clipPath></defs><g clip-path="url(#master_svg0_345_31650)"><g><path d="M19.3161,16.72954L19.3161,16.72954L12,9.87073L4.68433,16.72917L4.68433,16.72917C4.4986,16.9033,4.25406,17,4,17C3.447715,17,3,16.55229,3,16C3,15.72359,3.114408,15.45951,3.316059,15.27046L3.316059,15.27046L11.31606,7.770463C11.70072,7.4098457,12.29928,7.4098457,12.68394,7.770463L20.6834,15.269929999999999L20.6834,15.269929999999999C20.8856,15.45951,21,15.72359,21,16C21,16.55229,20.5523,17,20,17C19.7459,17,19.5014,16.9033,19.3161,16.72954Z" fill-rule="evenodd" fill="#222222" fill-opacity="1"/></g></g></svg>