<svg xmlns="http://www.w3.org/2000/svg" xmlns:xlink="http://www.w3.org/1999/xlink" fill="none" version="1.1" width="24" height="24" viewBox="0 0 24 24"><defs><clipPath id="master_svg0_345_31639"><rect x="0" y="0" width="24" height="24" rx="0"/></clipPath></defs><g clip-path="url(#master_svg0_345_31639)"><g><path d="M5.3692,2.5673339135742186L7.41502,2.5673339135742186C8.06269,1.1638869135742187,9.44284,0.23357391357421875,10.99262,0.23357391357421875C12.5424,0.23357391357421875,13.9226,1.1638869135742187,14.5702,2.5673339135742186L16.613500000000002,2.5673339135742186C19.0217,2.5673339135742186,20.9827,4.595413913574219,20.9827,7.085993913574219L20.9827,8.874853913574219C22.7124,9.313433913574219,24,10.93217391357422,24,12.853973913574219C24,14.775673913574218,22.7124,16.397073913574218,20.9827,16.83567391357422L20.9827,18.71757391357422C20.9827,21.208173913574218,19.0242,23.23357391357422,16.613500000000002,23.23357391357422L14.051,23.23357391357422C13.5004,23.23357391357422,13.0568,22.78197391357422,13.0667,22.23147391357422L13.0667,22.19957391357422C13.0667,21.01677391357422,12.1363,20.05187391357422,10.99006,20.05187391357422C9.84378,20.05187391357422,8.9134,21.01407391357422,8.9134,22.19957391357422L8.9134,22.23947391357422C8.92328,22.78557391357422,8.4833,23.23357391357422,7.93712,23.23357391357422L5.3692,23.23357391357422C2.9610000000000003,23.23357391357422,1,21.20547391357422,1,18.71487391357422L1,15.942473913574219C1,15.424973913574219,1.417991,15.00457391357422,1.935524,15.00167391357422C3.07152,14.993673913574218,3.99676,14.031473913574219,3.99676,12.853973913574219C3.99676,11.676473913574219,3.07152,10.71417391357422,1.935524,10.706273913574218C1.417991,10.703273913574218,1,10.282973913574219,1,9.765383913574219L1,7.085993913574219C1,4.595413913574219,2.9610000000000003,2.5673339135742186,5.3692,2.5673339135742186ZM16.613500000000002,21.23357391357422Q17.5734,21.23357391357422,18.2646,20.518973913574218Q18.9827,19.776673913574218,18.9827,18.71757391357422L18.9827,15.279473913574218L20.4911,14.89707391357422Q21.1294,14.735173913574219,21.554,14.182473913574219Q22,13.602073913574218,22,12.853973913574219Q22,12.106573913574218,21.5546,11.52747391357422Q21.1301,10.97557391357422,20.4911,10.813473913574219L18.9827,10.431073913574219L18.9827,7.085993913574219Q18.9827,6.026853913574219,18.2634,5.282933913574219Q17.5714,4.567333913574219,16.613500000000002,4.567333913574219L13.2905,4.567333913574219L12.7543,3.405373913574219Q12.5042,2.8634539135742187,12.0199,2.5446239135742186Q11.5475,2.2335739135742188,10.99262,2.2335739135742188Q10.43778,2.2335739135742188,9.96532,2.5446239135742186Q9.48106,2.8634539135742187,9.23097,3.405363913574219L8.69474,4.567333913574219L5.3692,4.567333913574219Q4.41125,4.567333913574219,3.71932,5.282933913574219Q3,6.026853913574219,3,7.085993913574219L3,8.843933913574219Q4.03276,9.121153913574219,4.83469,9.956213913574219Q5.99676,11.16627391357422,5.99676,12.853973913574219Q5.99676,14.541573913574219,4.83469,15.75167391357422Q4.03324,16.586273913574217,3,16.863573913574218L3,18.71487391357422Q3,19.77407391357422,3.71932,20.51797391357422Q4.41125,21.23357391357422,5.3692,21.23357391357422L7.01676,21.23357391357422Q7.26126,20.14197391357422,8.08408,19.29097391357422Q9.28215,18.05187391357422,10.99006,18.05187391357422Q12.698,18.05187391357422,13.8966,19.29257391357422Q14.7187,20.14347391357422,14.9632,21.23357391357422L16.613500000000002,21.23357391357422ZM6.9134,22.23947391357422Q6.91304,22.220473913574217,6.9134,22.20167391357422L6.9134,22.23947391357422ZM15.0664,22.267373913574218L15.0665,22.23617391357422Q15.0667,22.25177391357422,15.0664,22.267373913574218Z" fill-rule="evenodd" fill="#111111" fill-opacity="1"/></g></g></svg>