<svg xmlns="http://www.w3.org/2000/svg" xmlns:xlink="http://www.w3.org/1999/xlink" fill="none" version="1.1" width="14.9700345993042" height="13.978315353393555" viewBox="0 0 14.9700345993042 13.978315353393555"><g><path d="M13.9968,4.32436Q14.0211,4.91577,13.8773,5.54662C13.8364,5.72611,13.9368,5.91123,14.1135,5.96266L14.4045,6.04732C14.5813,6.09876,14.7669,5.99854,14.8095,5.81943Q14.9964,5.03269,14.9657,4.28454Q14.9267,3.1077,14.3379,2.14669Q13.7528,1.19166,12.7155,0.601471Q10.8896,-0.440162,9.173,0.322114Q8.28517,0.716371,7.48089,1.59455Q6.67128,0.728294,5.79755,0.339759Q4.08078,-0.423662,2.25725,0.60011Q1.21395,1.19366,0.633016,2.13691Q0.0434596,3.09416,0.004481,4.28864Q-0.0898209,6.58169,1.8002,9.10987Q3.63359,11.5623,7.02968,13.826L7.04069,13.8331L7.05045,13.8393Q7.45868,14.0957,7.88941,13.8792C7.90761,13.8701,7.92521,13.8598,7.94211,13.8485Q8.7011,13.3385,9.38931,12.8127C9.53559,12.7009,9.55924,12.4925,9.44565,12.3476L9.25869,12.1091C9.1451,11.9643,8.93322,11.941,8.78686,12.0527Q8.1741,12.5202,7.50222,12.9755Q4.29289,10.8247,2.57686,8.52926Q0.893218,6.27714,0.973663,4.32026Q1.03598,2.41056,2.73197,1.44566Q5.02201,0.159973,7.01927,2.53546Q7.20543,2.75687,7.49488,2.75122Q7.77594,2.74574,7.95465,2.5281Q9.92649,0.126818,12.2359,1.4443Q13.9333,2.41,13.9968,4.32436ZM11.6185,6.42578C11.4344,6.42578,11.2852,6.57502,11.2852,6.75911L11.2852,8.42578L9.48519,8.42578C9.30109,8.42578,9.15186,8.57502,9.15186,8.75912L9.15186,9.09245C9.15186,9.27654,9.30109,9.42578,9.48519,9.42578L11.2852,9.42578L11.2852,11.4258C11.2852,11.6099,11.4344,11.7591,11.6185,11.7591L11.9518,11.7591C12.1359,11.7591,12.2852,11.6099,12.2852,11.4258L12.2852,9.42578L14.1519,9.42578C14.336,9.42578,14.4852,9.27654,14.4852,9.09245L14.4852,8.75912C14.4852,8.57502,14.336,8.42578,14.1519,8.42578L12.2852,8.42578L12.2852,6.75911C12.2852,6.57502,12.1359,6.42578,11.9518,6.42578L11.6185,6.42578Z" fill-rule="evenodd" fill="#000000" fill-opacity="0.8700000047683716"/></g></svg>